<svg xmlns="http://www.w3.org/2000/svg" width="599.001" height="601.009" viewBox="0 0 599.001 601.009">
  <g id="About-img" transform="translate(0)">
    <path id="Path_29" data-name="Path 29" d="M861,411.5a298.7,298.7,0,0,1-21.754,112.268c-.035.08-.062.151-.1.23v.009a298.185,298.185,0,0,1-37.916,67.024q-4.479,5.981-9.242,11.714c-1.161,1.4-2.339,2.791-3.518,4.165q-9.1,10.567-19.157,20.247-2.339,2.259-4.732,4.466c-.372.346-.744.682-1.117,1.028a299.371,299.371,0,0,1-24.5,20.114q-8.573,6.34-17.6,12.042-1.98,1.263-3.987,2.481-3.482,2.127-7.027,4.156-4.625,2.658-9.366,5.148c-1.276.682-2.561,1.338-3.846,1.994-1.879.966-3.766,1.9-5.671,2.809-.328.159-.656.319-.984.47-1.241.6-2.5,1.187-3.757,1.772A296.745,296.745,0,0,1,635.817,701.7c-.1.027-.186.044-.284.071-1.143.292-2.3.576-3.447.851-.859.213-1.728.416-2.6.612a2.207,2.207,0,0,1-.328.08c-1.781.417-3.562.815-5.361,1.179-1.01.213-2.02.425-3.03.629-.611.133-1.232.248-1.843.363-.771.151-1.533.292-2.3.443-.425.089-.851.16-1.285.23-.975.177-1.949.354-2.915.523-1.648.284-3.314.558-4.971.806-1.205.186-2.4.363-3.606.532-1.418.2-2.836.39-4.262.567-.39.062-.78.106-1.17.151l-1.515.186c-1.019.124-2.038.239-3.066.346-.532.062-1.054.115-1.586.168q-1.515.159-3.03.292c-1.3.124-2.605.23-3.917.337-1.595.124-3.181.239-4.785.337-1.028.062-2.056.124-3.092.177-2.641.142-5.281.239-7.939.31-1.32.035-2.649.062-3.979.08h-.027c-1.32.018-2.649.027-3.979.027a300.532,300.532,0,0,1-40.273-2.694q-14.687-1.967-28.9-5.334c-.381-.089-.762-.177-1.134-.275-.957-.222-1.905-.461-2.853-.7-.842-.213-1.675-.434-2.517-.656a297.159,297.159,0,0,1-62.558-24.093c-.1-.053-.2-.106-.3-.159-.576-.3-1.143-.594-1.71-.9q-1.874-.984-3.73-2-10.567-5.808-20.593-12.423-2.579-1.688-5.1-3.429c-.54-.372-1.072-.744-1.6-1.116-.558-.39-1.117-.78-1.666-1.17q-2.193-1.555-4.36-3.146-8.972-6.593-17.412-13.832a301.04,301.04,0,0,1-52.421-58.349q-7.775-11.325-14.514-23.375A298.074,298.074,0,0,1,262,411.5C262,246.093,396.093,112,561.5,112S861,246.093,861,411.5Z" transform="translate(-262 -112)" fill="#6c63ff"/>
    <path id="Path_380" data-name="Path 380" d="M861,411.5a298.7,298.7,0,0,1-21.754,112.268c-.035.08-.062.151-.1.23v.009a298.185,298.185,0,0,1-37.916,67.024q-4.479,5.981-9.242,11.714c-1.161,1.4-2.339,2.791-3.518,4.165q-9.1,10.567-19.157,20.247-2.339,2.259-4.732,4.466c-.372.346-.744.682-1.117,1.028a299.371,299.371,0,0,1-24.5,20.114q-8.573,6.34-17.6,12.042-1.98,1.263-3.987,2.481-3.482,2.127-7.027,4.156-4.625,2.658-9.366,5.148c-1.276.682-2.561,1.338-3.846,1.994-1.879.966-3.766,1.9-5.671,2.809-.328.159-.656.319-.984.47-1.241.6-2.5,1.187-3.757,1.772A296.745,296.745,0,0,1,635.817,701.7c-.1.027-.186.044-.284.071-1.143.292-2.3.576-3.447.851-.859.213-1.728.416-2.6.612a2.207,2.207,0,0,1-.328.08c-1.781.417-3.562.815-5.361,1.179-1.01.213-2.02.425-3.03.629-.611.133-1.232.248-1.843.363-.771.151-1.533.292-2.3.443-.425.089-.851.16-1.285.23-.975.177-1.949.354-2.915.523-1.648.284-3.314.558-4.971.806-1.205.186-2.4.363-3.606.532-1.418.2-2.836.39-4.262.567-.39.062-.78.106-1.17.151l-1.515.186c-1.019.124-2.038.239-3.066.346-.532.062-1.054.115-1.586.168q-1.515.159-3.03.292c-1.3.124-2.605.23-3.917.337-1.595.124-3.181.239-4.785.337-1.028.062-2.056.124-3.092.177-2.641.142-5.281.239-7.939.31-1.32.035-2.649.062-3.979.08h-.027c-1.32.018-2.649.027-3.979.027a300.532,300.532,0,0,1-40.273-2.694q-14.687-1.967-28.9-5.334c-.381-.089-.762-.177-1.134-.275-.957-.222-1.905-.461-2.853-.7-.842-.213-1.675-.434-2.517-.656a297.159,297.159,0,0,1-62.558-24.093c-.1-.053-.2-.106-.3-.159-.576-.3-1.143-.594-1.71-.9q-1.874-.984-3.73-2-10.567-5.808-20.593-12.423-2.579-1.688-5.1-3.429c-.54-.372-1.072-.744-1.6-1.116-.558-.39-1.117-.78-1.666-1.17q-2.193-1.555-4.36-3.146-8.972-6.593-17.412-13.832a301.04,301.04,0,0,1-52.421-58.349q-7.775-11.325-14.514-23.375A298.074,298.074,0,0,1,262,411.5C262,246.093,396.093,112,561.5,112S861,246.093,861,411.5Z" transform="translate(-262 -112)" fill="#6c63ff"/>
    <path id="Path_30" data-name="Path 30" d="M654.35,725.632c.957-.222,1.905-.461,2.853-.7.842-.213,1.675-.434,2.517-.656.044-1.763.106-3.7.168-5.8.523-16.446,1.754-42.923,4.661-74.822q.239-2.565.479-5.166c1.037-10.81,2.251-22.179,3.7-33.964.044-.39.1-.771.142-1.161C670.052,593.808,671.39,584,672.9,574q1.582-10.487,3.42-21.2c.089-.5.177-1,.266-1.5.354-2.065.718-4.12,1.09-6.194,1.037-5.768,2.144-11.572,3.305-17.376,4.085-20.416,8.95-40.955,14.753-60.937A488.164,488.164,0,0,1,717.467,406a300.2,300.2,0,0,1,23.694-44.154c.133-.2.266-.4.4-.6,11.652-17.554,24.97-32.449,40.175-43.587l-3.154-4.306q-21.851,16.016-40.087,42.621c-.062.089-.115.168-.177.257a290.155,290.155,0,0,0-23.853,42.763,467.323,467.323,0,0,0-22.755,61.468q-8.719,29.268-15.64,63.418-2.432,12.029-4.643,24.651c-.248,1.435-.5,2.871-.744,4.315,0,.018-.009.044-.009.062-.381,2.215-.744,4.43-1.117,6.672q-1.382,8.467-2.605,16.8-1.887,12.839-3.411,25.236-.505,4.094-.975,8.125-.665,5.689-1.258,11.227-.837,7.709-1.533,15.09l-.133,1.356c-.071.78-.142,1.56-.213,2.33C655.83,678.545,654.7,709.886,654.35,725.632Z" transform="translate(-306.691 -134.935)" opacity="0.2"/>
    <path id="Path_31" data-name="Path 31" d="M731.01,730.522c.1-.053.2-.106.3-.16,1.825-.948,3.633-1.914,5.441-2.906.594-7.071,1.391-14.842,2.437-23.012.222-1.684.443-3.394.691-5.113.124-.922.257-1.852.39-2.791,1.046-7.2,2.286-14.621,3.775-22.081,6.052-30.446,16.1-61.566,32.785-80.776.895-1.037,1.808-2.029,2.756-3a59.955,59.955,0,0,1,7.629-6.69l-3.155-4.3a68.293,68.293,0,0,0-10.456,9.561q-1.661,1.848-3.243,3.846c-15.356,19.326-24.944,47.938-30.916,76.266-1.56,7.39-2.871,14.771-3.987,21.957q-.425,2.818-.815,5.582C732.915,709.088,731.772,720.589,731.01,730.522Z" transform="translate(-315.423 -165.274)" opacity="0.2"/>
    <circle id="Ellipse_375" data-name="Ellipse 375" cx="26.661" cy="26.661" r="26.661" transform="translate(478.18 129.275)" opacity="0.2"/>
    <circle id="Ellipse_376" data-name="Ellipse 376" cx="26.661" cy="26.661" r="26.661" transform="translate(469.595 358.782)" opacity="0.2"/>
    <path id="Path_32" data-name="Path 32" d="M707.71,331.486c5.654,31.9-6.827,60.779-6.827,60.779s-21.647-22.833-27.3-54.73,6.827-60.779,6.827-60.779S702.056,299.589,707.71,331.486Z" transform="translate(-308.714 -130.767)" opacity="0.2"/>
    <path id="Path_33" data-name="Path 33" d="M804.441,419.015c-30.424,11.125-61,3.986-61,3.986s18.755-25.176,49.179-36.3,61-3.986,61-3.986S834.865,407.89,804.441,419.015Z" transform="translate(-316.839 -142.579)" opacity="0.2"/>
    <path id="Path_34" data-name="Path 34" d="M812.605,649.842c-21.325,7.8-42.783,2.711-42.783,2.711s13.116-17.73,34.44-25.527,42.783-2.711,42.783-2.711S833.93,642.045,812.605,649.842Z" transform="translate(-319.844 -170.17)" opacity="0.2"/>
    <path id="Path_35" data-name="Path 35" d="M701.96,648.27l1.081.558C702.935,649.98,702.678,650.689,701.96,648.27Z" transform="translate(-312.114 -173.084)" fill="#2f2e41"/>
    <path id="Path_36" data-name="Path 36" d="M703.526,648.426c.009.124.026.257.035.381l-.381-.195c.009-.115.018-.239.035-.363C703.3,646.7,703.2,644.864,703.526,648.426Z" transform="translate(-312.253 -172.868)" fill="#2f2e41"/>
    <ellipse id="Ellipse_378" data-name="Ellipse 378" cx="73.294" cy="89.235" rx="73.294" ry="89.235" transform="translate(216.81 248.424)" fill="#ffb9b9"/>
    <path id="Path_37" data-name="Path 37" d="M767.071,671.324l-.106.027-20.5,4.918L703.8,686.512l-5.822,1.4-64.9,15.569-5.511,1.329-157.45,37.783a295.667,295.667,0,0,1-31.146-14.027c-.1-.053-.2-.106-.3-.159-.576-.3-1.143-.594-1.71-.9q-1.874-.984-3.73-2-10.567-5.808-20.593-12.423-2.579-1.688-5.1-3.429c-.54-.372-1.072-.744-1.6-1.116-.558-.39-1.117-.78-1.666-1.17q-2.193-1.555-4.36-3.146c15.294-27.8,51.712-46.272,88.131-56.382,27.487-7.638,47.527-25.659,47-48-.133-5.1-21.592-15.013-22.321-20.058-1.11-8.029,10.729-28.786,8.324-36.527l81.547,13.527,19.429,23c-.249,2.3-16.1,17.745-16.008,20.058.691,17.181,16.73,13.112,29.817,20.281,1.7.93,3.447,1.8,5.219,2.605,21.461,9.756,46.724,10.421,46.724,10.421a89.953,89.953,0,0,1,23.118.434q2.791.425,5.423,1.019a78.1,78.1,0,0,1,28.453,12.733,81.18,81.18,0,0,1,9.224,7.647A73.262,73.262,0,0,1,767.071,671.324Z" transform="translate(-277.708 -163.317)" fill="#ffb9b9"/>
    <path id="Path_38" data-name="Path 38" d="M819.183,696.171c-.372.346-.744.682-1.116,1.028a299.385,299.385,0,0,1-24.5,20.114q-8.573,6.34-17.6,12.042-1.98,1.263-3.987,2.481-3.482,2.127-7.027,4.156-4.625,2.658-9.366,5.148c-1.276.682-2.561,1.338-3.846,1.994-1.879.966-3.766,1.9-5.671,2.809-.328.159-.656.319-.984.47l-3.748-3.11,44.021-53.8,8.852-10.819s3.536,0,11.643,5.9a116.065,116.065,0,0,1,12.671,10.934C818.74,695.737,818.962,695.95,819.183,696.171Z" transform="translate(-316.6 -176.548)" fill="#d0cde1"/>
    <path id="Path_39" data-name="Path 39" d="M790.039,695.249c-.119.567-11.808,9.994-12.019,10.532-7.806,7.265-26.328,20.4-26.328,20.4s-14.357,8.2-16.72,9.577q-4.625,2.708-9.366,5.243c-1.276.7-2.561,1.363-3.846,2.031-1.878.984-3.766,1.931-5.671,2.861-.328.162-.656.325-.984.478-1.241.614-2.5,1.209-3.757,1.8a293.208,293.208,0,0,1-50.915,18.4c-.1.027-.186.045-.284.072-1.143.3-2.295.587-3.447.866-.859.217-1.728.424-2.6.623a2.191,2.191,0,0,1-.328.081c-1.781.424-3.562.83-5.361,1.2-1.01.217-2.02.433-3.03.641-.611.135-1.232.253-1.843.37-.771.153-1.533.3-2.3.451-.425.09-.851.162-1.285.235-.975.181-1.949.361-2.915.532-1.648.289-3.314.569-4.971.821-1.205.19-2.4.37-3.606.542-1.418.208-2.836.4-4.262.578-.39.063-.78.108-1.17.153l-1.515.19c-1.019.126-2.038.244-3.066.352-.532.063-1.054.117-1.586.171q-1.515.163-3.03.3c-1.3.126-2.605.235-3.917.343-1.595.126-3.181.244-4.785.343-1.028.063-2.056.126-3.092.18-2.641.144-5.281.244-7.939.316-1.32.036-2.649.063-3.979.081H590.1c-1.32.018-2.649.027-3.979.027a295.16,295.16,0,0,1-40.273-2.744,290.748,290.748,0,0,1-28.9-5.433c-.381-.09-.762-.181-1.134-.28-.957-.226-1.905-.469-2.853-.713-.842-.217-1.675-.442-2.517-.668-21.695-5.75-42.883-13.042-62.76-23.6-.1-.054-6.415-3.66-6.513-3.715l-11.121-7.37L419.8,725.366l-13.224-9.674c48.638-11.543,164.787-4.849,231.483-20.444q2.8-.65,5.573-1.3c24.634-5.758,47.708-11.119,67.228-15.6l5.937-1.354c20.974-4.8,37.26-8.447,46.095-10.27a71.028,71.028,0,0,1,7.213-1.291L790,695.195Z" transform="translate(-286.617 -175.039)" fill="#2f2e41"/>
    <path id="Path_352" data-name="Path 352" d="M531.222,157.076c-21.157,2.681-44.522,1-59.476,16.2-8.365,8.5-13.265,19.826-17.3,31.042-6.25,17.466-10.9,35.876-9.441,54.409,1.3,16.579,7.44,33.535,2.474,49.415-2.285,7.307-6.769,13.69-10.253,20.5-6.458,12.642-9.5,26.813-10.612,40.965-.774,9.734-.623,19.751,2.577,28.975,3.408,9.819,10.055,18.174,14.265,27.672,6.231,14.029,6.854,29.815,7.336,45.157s.887,30.58,1.246,45.865c.227,9.611.245,19.9-5.07,27.917C466.6,537.322,486.5,529.3,503.3,516.457s30.391-31.354,32.562-52.389c1.756-17.051-4-33.856-8.969-50.264-12.273-40.6-39.783-83.491-30.851-124.947,3.219-14.926,24.8-32.578,39.82-35.325,9.167-1.671,28.909,22.982,37.17,27.306,1.328.695,15.688,10,17.287,10.868,17.945,9.774,21.978,6.427,28.753,25.812,6.609,18.807-2.837,27.443-11.438,45.4s-20.308,34.469-26.992,53.238c-10.263,28.8-7.373,62.509,9.677,87.878s48.556,40.974,78.852,36.877c-2.37-10.234-9.8-18.5-13.784-28.229-7.242-17.664-2.36-37.982,5.428-55.41s18.42-33.676,23.291-52.181c3.436-13.029,3.852-26.643,3.833-40.115,0-21.2-1.048-42.419-3.087-63.529s-5.155-42.485-11.877-62.793c-5.4-16.286-13.265-32.034-25.029-44.524-12.519-13.3-28.814-22.319-44.817-31.156-9.573-5.268-19.354-10.6-30.1-12.576-8.5-1.558-17.428-3.776-26.1-3.918C541.043,146.394,535.376,152.894,531.222,157.076Z" transform="translate(-266.978 26.495)" fill="#434175"/>
  </g>
</svg>
